<svg id="Layer_1" data-name="Layer 1" xmlns="http://www.w3.org/2000/svg" width="49.04mm" height="42.76mm" viewBox="0 0 139 121.21">
  <polyline points="20 22 48 22 48.11 19.75 48.45 17.57 48.99 15.46 49.73 13.44 50.66 11.51 51.76 9.7 53.02 8.01 54.44 6.44 56.01 5.02 57.7 3.76 59.51 2.65 61.44 1.73 63.46 0.99 65.57 0.45 67.75 0.11 70 0 72.25 0.11 74.43 0.45 76.54 0.99 78.56 1.73 80.49 2.65 82.3 3.76 83.99 5.02 85.56 6.44 86.98 8.01 88.24 9.7 89.34 11.51 90.27 13.44 91.01 15.46 91.55 17.57 91.89 19.75 92 22 119.21 22 139 71.61 119.21 121.21 94 121.21 94 121 94 121 93.88 118.55 93.51 116.16 92.92 113.86 92.11 111.66 91.1 109.56 89.9 107.58 88.52 105.73 86.97 104.03 85.27 102.48 83.42 101.1 81.44 99.9 79.34 98.89 77.14 98.08 74.84 97.49 72.45 97.12 70 97 67.55 97.12 65.16 97.49 62.86 98.08 60.66 98.89 58.56 99.9 56.58 101.1 54.73 102.48 53.03 104.03 51.48 105.73 50.1 107.58 48.9 109.56 47.89 111.66 47.08 113.86 46.49 116.16 46.12 118.55 46 121 46 121.21 20 121.21 20 93 0 72 20 50 20 22" style="fill: none"/>
</svg>
